<mxfile host="app.diagrams.net" agent="Mozilla/5.0 (Windows NT 10.0; Win64; x64) AppleWebKit/537.36 (KHTML, like Gecko) Chrome/131.0.0.0 Safari/537.36" version="25.0.0">
  <diagram id="C5RBs43oDa-KdzZeNtuy" name="Page-1">
    <mxGraphModel dx="2016" dy="851" grid="1" gridSize="10" guides="1" tooltips="1" connect="1" arrows="1" fold="1" page="1" pageScale="1" pageWidth="827" pageHeight="1169" math="0" shadow="0">
      <root>
        <mxCell id="WIyWlLk6GJQsqaUBKTNV-0" />
        <mxCell id="WIyWlLk6GJQsqaUBKTNV-1" parent="WIyWlLk6GJQsqaUBKTNV-0" />
        <mxCell id="b20Ar70sao3lVTHU2Vnm-16" value="" style="edgeStyle=orthogonalEdgeStyle;rounded=0;orthogonalLoop=1;jettySize=auto;html=1;" edge="1" parent="WIyWlLk6GJQsqaUBKTNV-1" source="b20Ar70sao3lVTHU2Vnm-9" target="b20Ar70sao3lVTHU2Vnm-10">
          <mxGeometry relative="1" as="geometry" />
        </mxCell>
        <mxCell id="b20Ar70sao3lVTHU2Vnm-9" value="Mulai" style="strokeWidth=2;html=1;shape=mxgraph.flowchart.start_1;whiteSpace=wrap;fillColor=#FFCCFF;" vertex="1" parent="WIyWlLk6GJQsqaUBKTNV-1">
          <mxGeometry x="110" y="80" width="100" height="60" as="geometry" />
        </mxCell>
        <mxCell id="b20Ar70sao3lVTHU2Vnm-15" style="edgeStyle=orthogonalEdgeStyle;rounded=0;orthogonalLoop=1;jettySize=auto;html=1;" edge="1" parent="WIyWlLk6GJQsqaUBKTNV-1" source="b20Ar70sao3lVTHU2Vnm-10" target="b20Ar70sao3lVTHU2Vnm-17">
          <mxGeometry relative="1" as="geometry">
            <mxPoint x="210" y="260" as="targetPoint" />
          </mxGeometry>
        </mxCell>
        <mxCell id="b20Ar70sao3lVTHU2Vnm-10" value="Input pilihan gaya&lt;div&gt;pakaian (1/2)&lt;/div&gt;" style="shape=parallelogram;html=1;strokeWidth=2;perimeter=parallelogramPerimeter;whiteSpace=wrap;rounded=1;arcSize=12;size=0.23;fillColor=#CCCCFF;" vertex="1" parent="WIyWlLk6GJQsqaUBKTNV-1">
          <mxGeometry x="60" y="170" width="200" height="60" as="geometry" />
        </mxCell>
        <mxCell id="b20Ar70sao3lVTHU2Vnm-20" value="" style="edgeStyle=orthogonalEdgeStyle;rounded=0;orthogonalLoop=1;jettySize=auto;html=1;" edge="1" parent="WIyWlLk6GJQsqaUBKTNV-1" source="b20Ar70sao3lVTHU2Vnm-17" target="b20Ar70sao3lVTHU2Vnm-19">
          <mxGeometry relative="1" as="geometry" />
        </mxCell>
        <mxCell id="b20Ar70sao3lVTHU2Vnm-25" value="" style="edgeStyle=orthogonalEdgeStyle;rounded=0;orthogonalLoop=1;jettySize=auto;html=1;" edge="1" parent="WIyWlLk6GJQsqaUBKTNV-1" source="b20Ar70sao3lVTHU2Vnm-17" target="b20Ar70sao3lVTHU2Vnm-24">
          <mxGeometry relative="1" as="geometry" />
        </mxCell>
        <mxCell id="b20Ar70sao3lVTHU2Vnm-27" value="Yes" style="edgeLabel;html=1;align=center;verticalAlign=middle;resizable=0;points=[];" vertex="1" connectable="0" parent="b20Ar70sao3lVTHU2Vnm-25">
          <mxGeometry x="-0.2571" y="1" relative="1" as="geometry">
            <mxPoint as="offset" />
          </mxGeometry>
        </mxCell>
        <mxCell id="b20Ar70sao3lVTHU2Vnm-17" value="Apakah pilihan&lt;div&gt;== 1&lt;/div&gt;" style="strokeWidth=2;html=1;shape=mxgraph.flowchart.decision;whiteSpace=wrap;fillColor=#CCFFCC;" vertex="1" parent="WIyWlLk6GJQsqaUBKTNV-1">
          <mxGeometry x="100" y="252.5" width="120" height="90" as="geometry" />
        </mxCell>
        <mxCell id="b20Ar70sao3lVTHU2Vnm-26" value="" style="edgeStyle=orthogonalEdgeStyle;rounded=0;orthogonalLoop=1;jettySize=auto;html=1;" edge="1" parent="WIyWlLk6GJQsqaUBKTNV-1" source="b20Ar70sao3lVTHU2Vnm-19" target="b20Ar70sao3lVTHU2Vnm-17">
          <mxGeometry relative="1" as="geometry" />
        </mxCell>
        <mxCell id="b20Ar70sao3lVTHU2Vnm-28" value="No" style="edgeLabel;html=1;align=center;verticalAlign=middle;resizable=0;points=[];" vertex="1" connectable="0" parent="b20Ar70sao3lVTHU2Vnm-26">
          <mxGeometry x="-0.113" relative="1" as="geometry">
            <mxPoint as="offset" />
          </mxGeometry>
        </mxCell>
        <mxCell id="b20Ar70sao3lVTHU2Vnm-43" style="edgeStyle=orthogonalEdgeStyle;rounded=0;orthogonalLoop=1;jettySize=auto;html=1;exitX=0.5;exitY=1;exitDx=0;exitDy=0;" edge="1" parent="WIyWlLk6GJQsqaUBKTNV-1" source="b20Ar70sao3lVTHU2Vnm-19" target="b20Ar70sao3lVTHU2Vnm-35">
          <mxGeometry relative="1" as="geometry">
            <Array as="points">
              <mxPoint x="320" y="470" />
            </Array>
          </mxGeometry>
        </mxCell>
        <mxCell id="b20Ar70sao3lVTHU2Vnm-19" value="Data Non-Hijab" style="whiteSpace=wrap;html=1;strokeWidth=2;fillColor=#FFFFCC;" vertex="1" parent="WIyWlLk6GJQsqaUBKTNV-1">
          <mxGeometry x="265" y="275" width="110" height="45" as="geometry" />
        </mxCell>
        <mxCell id="b20Ar70sao3lVTHU2Vnm-36" value="" style="edgeStyle=orthogonalEdgeStyle;rounded=0;orthogonalLoop=1;jettySize=auto;html=1;" edge="1" parent="WIyWlLk6GJQsqaUBKTNV-1" source="b20Ar70sao3lVTHU2Vnm-24" target="b20Ar70sao3lVTHU2Vnm-35">
          <mxGeometry relative="1" as="geometry" />
        </mxCell>
        <mxCell id="b20Ar70sao3lVTHU2Vnm-24" value="Data Hijab" style="whiteSpace=wrap;html=1;strokeWidth=2;fillColor=#FFFFCC;" vertex="1" parent="WIyWlLk6GJQsqaUBKTNV-1">
          <mxGeometry x="105" y="370" width="110" height="40" as="geometry" />
        </mxCell>
        <mxCell id="b20Ar70sao3lVTHU2Vnm-38" style="edgeStyle=orthogonalEdgeStyle;rounded=0;orthogonalLoop=1;jettySize=auto;html=1;exitX=0.5;exitY=1;exitDx=0;exitDy=0;" edge="1" parent="WIyWlLk6GJQsqaUBKTNV-1" source="b20Ar70sao3lVTHU2Vnm-35" target="b20Ar70sao3lVTHU2Vnm-39">
          <mxGeometry relative="1" as="geometry">
            <mxPoint x="215" y="530" as="targetPoint" />
          </mxGeometry>
        </mxCell>
        <mxCell id="b20Ar70sao3lVTHU2Vnm-35" value="Panggil tampilkanRekomendasi" style="whiteSpace=wrap;html=1;strokeWidth=2;fillColor=#FFFFCC;" vertex="1" parent="WIyWlLk6GJQsqaUBKTNV-1">
          <mxGeometry x="82.5" y="440" width="155" height="50" as="geometry" />
        </mxCell>
        <mxCell id="b20Ar70sao3lVTHU2Vnm-39" value="Selesai" style="strokeWidth=2;html=1;shape=mxgraph.flowchart.start_1;whiteSpace=wrap;fillColor=#FFCCFF;" vertex="1" parent="WIyWlLk6GJQsqaUBKTNV-1">
          <mxGeometry x="110" y="525" width="100" height="60" as="geometry" />
        </mxCell>
        <mxCell id="b20Ar70sao3lVTHU2Vnm-44" value="&lt;font style=&quot;font-size: 18px;&quot;&gt;Seleksi If-Else&lt;/font&gt;" style="text;html=1;align=center;verticalAlign=middle;resizable=0;points=[];autosize=1;strokeColor=none;fillColor=none;" vertex="1" parent="WIyWlLk6GJQsqaUBKTNV-1">
          <mxGeometry x="90" y="40" width="140" height="40" as="geometry" />
        </mxCell>
        <mxCell id="b20Ar70sao3lVTHU2Vnm-51" value="" style="edgeStyle=orthogonalEdgeStyle;rounded=0;orthogonalLoop=1;jettySize=auto;html=1;" edge="1" parent="WIyWlLk6GJQsqaUBKTNV-1" source="b20Ar70sao3lVTHU2Vnm-45" target="b20Ar70sao3lVTHU2Vnm-50">
          <mxGeometry relative="1" as="geometry" />
        </mxCell>
        <mxCell id="b20Ar70sao3lVTHU2Vnm-45" value="Mulai" style="strokeWidth=2;html=1;shape=mxgraph.flowchart.start_1;whiteSpace=wrap;fillColor=#FFCCFF;" vertex="1" parent="WIyWlLk6GJQsqaUBKTNV-1">
          <mxGeometry x="640" y="80" width="100" height="60" as="geometry" />
        </mxCell>
        <mxCell id="b20Ar70sao3lVTHU2Vnm-53" value="" style="edgeStyle=orthogonalEdgeStyle;rounded=0;orthogonalLoop=1;jettySize=auto;html=1;" edge="1" parent="WIyWlLk6GJQsqaUBKTNV-1" source="b20Ar70sao3lVTHU2Vnm-50" target="b20Ar70sao3lVTHU2Vnm-52">
          <mxGeometry relative="1" as="geometry" />
        </mxCell>
        <mxCell id="b20Ar70sao3lVTHU2Vnm-50" value="Input tipe badan (0-3)" style="shape=parallelogram;perimeter=parallelogramPerimeter;whiteSpace=wrap;html=1;fixedSize=1;strokeWidth=2;fillColor=#CCCCFF;" vertex="1" parent="WIyWlLk6GJQsqaUBKTNV-1">
          <mxGeometry x="600" y="170" width="180" height="40" as="geometry" />
        </mxCell>
        <mxCell id="b20Ar70sao3lVTHU2Vnm-56" value="" style="edgeStyle=orthogonalEdgeStyle;rounded=0;orthogonalLoop=1;jettySize=auto;html=1;" edge="1" parent="WIyWlLk6GJQsqaUBKTNV-1" source="b20Ar70sao3lVTHU2Vnm-52" target="b20Ar70sao3lVTHU2Vnm-55">
          <mxGeometry relative="1" as="geometry" />
        </mxCell>
        <mxCell id="b20Ar70sao3lVTHU2Vnm-58" value="" style="edgeStyle=orthogonalEdgeStyle;rounded=0;orthogonalLoop=1;jettySize=auto;html=1;" edge="1" parent="WIyWlLk6GJQsqaUBKTNV-1" source="b20Ar70sao3lVTHU2Vnm-52" target="b20Ar70sao3lVTHU2Vnm-57">
          <mxGeometry relative="1" as="geometry" />
        </mxCell>
        <mxCell id="b20Ar70sao3lVTHU2Vnm-60" value="" style="edgeStyle=orthogonalEdgeStyle;rounded=0;orthogonalLoop=1;jettySize=auto;html=1;" edge="1" parent="WIyWlLk6GJQsqaUBKTNV-1" source="b20Ar70sao3lVTHU2Vnm-52" target="b20Ar70sao3lVTHU2Vnm-59">
          <mxGeometry relative="1" as="geometry" />
        </mxCell>
        <mxCell id="b20Ar70sao3lVTHU2Vnm-70" style="edgeStyle=orthogonalEdgeStyle;curved=1;rounded=0;orthogonalLoop=1;jettySize=auto;html=1;exitX=0;exitY=1;exitDx=0;exitDy=0;entryX=0.75;entryY=0;entryDx=0;entryDy=0;" edge="1" parent="WIyWlLk6GJQsqaUBKTNV-1" source="b20Ar70sao3lVTHU2Vnm-52" target="b20Ar70sao3lVTHU2Vnm-69">
          <mxGeometry relative="1" as="geometry" />
        </mxCell>
        <mxCell id="b20Ar70sao3lVTHU2Vnm-73" style="edgeStyle=orthogonalEdgeStyle;curved=1;rounded=0;orthogonalLoop=1;jettySize=auto;html=1;exitX=1;exitY=1;exitDx=0;exitDy=0;entryX=0.25;entryY=0;entryDx=0;entryDy=0;" edge="1" parent="WIyWlLk6GJQsqaUBKTNV-1" source="b20Ar70sao3lVTHU2Vnm-52" target="b20Ar70sao3lVTHU2Vnm-71">
          <mxGeometry relative="1" as="geometry" />
        </mxCell>
        <mxCell id="b20Ar70sao3lVTHU2Vnm-52" value="Tipe badan" style="rhombus;whiteSpace=wrap;html=1;strokeWidth=2;fillColor=#CCFFCC;" vertex="1" parent="WIyWlLk6GJQsqaUBKTNV-1">
          <mxGeometry x="620" y="230" width="140" height="80" as="geometry" />
        </mxCell>
        <mxCell id="b20Ar70sao3lVTHU2Vnm-76" value="" style="edgeStyle=none;rounded=0;orthogonalLoop=1;jettySize=auto;html=1;" edge="1" parent="WIyWlLk6GJQsqaUBKTNV-1" source="b20Ar70sao3lVTHU2Vnm-55" target="b20Ar70sao3lVTHU2Vnm-71">
          <mxGeometry relative="1" as="geometry" />
        </mxCell>
        <mxCell id="b20Ar70sao3lVTHU2Vnm-55" value="Tipe: Apple" style="whiteSpace=wrap;html=1;strokeWidth=2;fillColor=#FFFFCC;" vertex="1" parent="WIyWlLk6GJQsqaUBKTNV-1">
          <mxGeometry x="800" y="245" width="110" height="50" as="geometry" />
        </mxCell>
        <mxCell id="b20Ar70sao3lVTHU2Vnm-80" value="" style="edgeStyle=none;rounded=0;orthogonalLoop=1;jettySize=auto;html=1;" edge="1" parent="WIyWlLk6GJQsqaUBKTNV-1" source="b20Ar70sao3lVTHU2Vnm-57" target="b20Ar70sao3lVTHU2Vnm-79">
          <mxGeometry relative="1" as="geometry" />
        </mxCell>
        <mxCell id="b20Ar70sao3lVTHU2Vnm-57" value="Tipe tidak diketahui" style="whiteSpace=wrap;html=1;strokeWidth=2;fillColor=#FFFFCC;" vertex="1" parent="WIyWlLk6GJQsqaUBKTNV-1">
          <mxGeometry x="630" y="330" width="120" height="50" as="geometry" />
        </mxCell>
        <mxCell id="b20Ar70sao3lVTHU2Vnm-75" value="" style="edgeStyle=none;rounded=0;orthogonalLoop=1;jettySize=auto;html=1;" edge="1" parent="WIyWlLk6GJQsqaUBKTNV-1" source="b20Ar70sao3lVTHU2Vnm-59" target="b20Ar70sao3lVTHU2Vnm-69">
          <mxGeometry relative="1" as="geometry" />
        </mxCell>
        <mxCell id="b20Ar70sao3lVTHU2Vnm-59" value="Tipe: Pear" style="whiteSpace=wrap;html=1;strokeWidth=2;fillColor=#FFFFCC;" vertex="1" parent="WIyWlLk6GJQsqaUBKTNV-1">
          <mxGeometry x="470" y="245" width="110" height="50" as="geometry" />
        </mxCell>
        <mxCell id="b20Ar70sao3lVTHU2Vnm-78" value="" style="edgeStyle=none;rounded=0;orthogonalLoop=1;jettySize=auto;html=1;" edge="1" parent="WIyWlLk6GJQsqaUBKTNV-1" source="b20Ar70sao3lVTHU2Vnm-69" target="b20Ar70sao3lVTHU2Vnm-57">
          <mxGeometry relative="1" as="geometry" />
        </mxCell>
        <mxCell id="b20Ar70sao3lVTHU2Vnm-69" value="Tipe: Hourglass" style="whiteSpace=wrap;html=1;strokeWidth=2;fillColor=#FFFFCC;" vertex="1" parent="WIyWlLk6GJQsqaUBKTNV-1">
          <mxGeometry x="480" y="320" width="120" height="50" as="geometry" />
        </mxCell>
        <mxCell id="b20Ar70sao3lVTHU2Vnm-77" value="" style="edgeStyle=none;rounded=0;orthogonalLoop=1;jettySize=auto;html=1;" edge="1" parent="WIyWlLk6GJQsqaUBKTNV-1" source="b20Ar70sao3lVTHU2Vnm-71" target="b20Ar70sao3lVTHU2Vnm-57">
          <mxGeometry relative="1" as="geometry" />
        </mxCell>
        <mxCell id="b20Ar70sao3lVTHU2Vnm-71" value="Tipe: Rectangle" style="whiteSpace=wrap;html=1;strokeWidth=2;fillColor=#FFFFCC;" vertex="1" parent="WIyWlLk6GJQsqaUBKTNV-1">
          <mxGeometry x="780" y="320" width="120" height="50" as="geometry" />
        </mxCell>
        <mxCell id="b20Ar70sao3lVTHU2Vnm-86" value="" style="edgeStyle=none;rounded=0;orthogonalLoop=1;jettySize=auto;html=1;" edge="1" parent="WIyWlLk6GJQsqaUBKTNV-1" source="b20Ar70sao3lVTHU2Vnm-79" target="b20Ar70sao3lVTHU2Vnm-84">
          <mxGeometry relative="1" as="geometry" />
        </mxCell>
        <mxCell id="b20Ar70sao3lVTHU2Vnm-79" value="Simpan deklarasi ke variable" style="whiteSpace=wrap;html=1;strokeWidth=2;fillColor=#FFFFCC;" vertex="1" parent="WIyWlLk6GJQsqaUBKTNV-1">
          <mxGeometry x="630" y="410" width="120" height="60" as="geometry" />
        </mxCell>
        <mxCell id="b20Ar70sao3lVTHU2Vnm-84" value="Selesai" style="strokeWidth=2;html=1;shape=mxgraph.flowchart.start_1;whiteSpace=wrap;fillColor=#FFCCFF;" vertex="1" parent="WIyWlLk6GJQsqaUBKTNV-1">
          <mxGeometry x="640" y="500" width="100" height="60" as="geometry" />
        </mxCell>
        <mxCell id="b20Ar70sao3lVTHU2Vnm-87" value="&lt;span style=&quot;font-size: 18px;&quot;&gt;Seleksi Switch-Case&lt;/span&gt;" style="text;html=1;align=center;verticalAlign=middle;resizable=0;points=[];autosize=1;strokeColor=none;fillColor=none;" vertex="1" parent="WIyWlLk6GJQsqaUBKTNV-1">
          <mxGeometry x="595" y="40" width="190" height="40" as="geometry" />
        </mxCell>
      </root>
    </mxGraphModel>
  </diagram>
</mxfile>
